<?xml version="1.0" encoding="UTF-8"?>
<svg width="158px" height="42px" viewBox="0 0 158 42" version="1.1" xmlns="http://www.w3.org/2000/svg" xmlns:xlink="http://www.w3.org/1999/xlink">
    <!-- Generator: Sketch 41.2 (35397) - http://www.bohemiancoding.com/sketch -->
    <title>gameroom-download-button</title>
    <desc>Created with Sketch.</desc>
    <defs></defs>
    <g id="Badge" stroke="none" stroke-width="1" fill="none" fill-rule="evenodd">
        <g id="gameroom-download-button">
            <rect id="Rectangle-1" fill="#4267B2" x="0" y="0" width="158" height="42" rx="4"></rect>
            <path d="M32.5753425,8 L9.42465753,8 C8.65296804,8 8,8.65296804 8,9.42465753 L8,32.5753425 C8,33.347032 8.65296804,34 9.42465753,34 L21.890411,34 L21.890411,23.9086758 L18.5068493,23.9086758 L18.5068493,19.9908676 L21.890411,19.9908676 L21.890411,17.0821918 C21.890411,13.6986301 23.9680365,11.9178082 26.9360731,11.9178082 C28.3607306,11.9178082 29.6073059,12.0365297 29.9634703,12.0958904 L29.9634703,15.5981735 L27.8858447,15.5981735 C26.283105,15.5981735 25.9269406,16.369863 25.9269406,17.4977169 L25.9269406,19.9908676 L29.8447489,19.9908676 L29.3105023,23.9086758 L25.9269406,23.9086758 L25.9269406,34 L32.5753425,34 C33.347032,34 34,33.347032 34,32.5753425 L34,9.42465753 C34,8.65296804 33.347032,8 32.5753425,8" id="brand" fill="#FFFFFF"></path>
            <path d="M50.14,11.016 C50.14,9.918 49.375,9.135 47.818,9.135 L46,9.135 L46,14.76 L47.098,14.76 L47.098,13.014 L47.737,13.005 C49.249,12.996 50.14,12.312 50.14,11.016 L50.14,11.016 Z M49.042,11.052 C49.042,11.709 48.619,12.069 47.782,12.087 L47.08,12.105 L47.08,10.053 L47.746,10.053 C48.61,10.053 49.042,10.395 49.042,11.052 L49.042,11.052 Z M54.73,14.76 L54.73,13.797 L52.192,13.797 L52.192,9.135 L51.094,9.135 L51.094,14.76 L54.73,14.76 Z M58.456,9.135 L57.124,9.135 L55.072,14.76 L56.179,14.76 L56.638,13.428 L58.906,13.428 L59.374,14.76 L60.481,14.76 L58.456,9.135 Z M58.627,12.519 L56.926,12.519 L57.781,10.08 L58.627,12.519 Z M65.17,9.135 L63.991,9.135 L62.686,11.565 L61.354,9.135 L60.166,9.135 L62.128,12.573 L62.128,14.76 L63.217,14.76 L63.217,12.582 L65.17,9.135 Z M73.648,11.925 C73.648,10.08 72.424,9 70.768,9 C69.103,9 67.87,10.224 67.87,11.961 C67.87,13.806 69.094,14.895 70.759,14.895 C72.424,14.895 73.648,13.662 73.648,11.925 L73.648,11.925 Z M72.55,11.961 C72.55,13.158 71.848,13.977 70.777,13.977 C69.679,13.977 68.977,13.158 68.977,11.925 C68.977,10.728 69.67,9.918 70.741,9.918 C71.839,9.918 72.55,10.728 72.55,11.961 L72.55,11.961 Z M78.535,13.23 L75.871,9.135 L74.674,9.135 L74.674,14.76 L75.718,14.76 L75.718,10.674 L78.409,14.814 L79.579,14.814 L79.579,9.135 L78.535,9.135 L78.535,13.23 Z" id="PLAY-ON" fill="#FFFFFF"></path>
            <path d="M48.82,32.418 C47.302,32.66 46.532,33.606 46.532,34.662 C46.532,36.488 48.666,37.478 51.35,37.478 C54.562,37.478 57.268,35.828 57.268,33.43 C57.268,31.45 55.618,30.636 52.714,30.636 L51.658,30.636 C50.03,30.636 49.568,30.394 49.568,29.844 C49.568,29.426 50.008,29.096 50.36,28.964 C50.91,29.096 51.262,29.14 51.746,29.14 C54.254,29.14 55.992,27.512 55.992,25.444 C55.992,24.916 55.794,24.146 55.53,23.86 L57.466,24.19 L57.356,21.924 L54.628,22.166 C53.924,21.858 52.912,21.528 51.768,21.528 C48.952,21.528 47.302,23.31 47.302,25.4 C47.302,26.808 48.028,27.952 49.15,28.524 C48.028,28.898 47.28,29.734 47.28,30.658 C47.28,31.472 47.94,32.11 48.82,32.418 Z M49.81,25.422 C49.81,24.146 50.536,23.288 51.68,23.288 C52.978,23.288 53.616,24.124 53.616,25.334 C53.616,26.61 52.956,27.446 51.79,27.446 C50.536,27.446 49.81,26.632 49.81,25.422 Z M50.162,32.77 C50.58,32.814 51.46,32.858 52.098,32.858 C53.99,32.858 54.914,33.078 54.914,34.024 C54.914,35.08 53.55,35.74 51.768,35.74 C50.052,35.74 48.886,35.08 48.886,34.134 C48.886,33.518 49.436,33.034 50.162,32.77 Z M64.308,30.834 C64.682,31.846 65.584,32.44 67.52,32.22 L67.718,30.262 C66.948,30.218 66.816,30.108 66.816,29.338 L66.816,25.708 C66.882,22.914 65.672,21.528 62.548,21.528 C60.876,21.528 59.292,22.1 58.302,22.716 L58.83,24.762 C59.908,24.146 61.162,23.684 62.196,23.684 C63.648,23.684 64.22,24.256 64.22,25.62 L64.22,25.862 C59.578,26.016 58.214,27.6 58.214,29.47 C58.214,31.076 59.534,32.33 61.36,32.33 C62.614,32.33 63.494,31.714 64.22,30.834 L64.308,30.834 Z M64.22,29.558 C63.758,30.064 63.098,30.438 62.284,30.438 C61.36,30.438 60.766,29.888 60.766,29.118 C60.766,28.04 61.69,27.534 64.22,27.226 L64.22,29.558 Z M84.812,32 L84.812,25.048 C84.812,22.848 83.602,21.528 81.688,21.528 C80.302,21.528 79.092,22.166 78.08,23.266 C77.574,22.122 76.54,21.528 75.308,21.528 C74.054,21.528 73.02,22.034 72.074,22.98 L72.074,21.55 L69.478,21.902 L69.478,32 L72.074,32 L72.074,24.652 C72.558,24.19 73.262,23.816 74.186,23.816 C75.264,23.816 75.836,24.344 75.836,25.84 L75.836,32 L78.432,32 L78.432,24.718 C78.938,24.278 79.642,23.816 80.544,23.816 C81.622,23.816 82.216,24.344 82.216,25.84 L82.216,32 L84.812,32 Z M89.454,27.424 C89.454,27.424 96.076,27.336 96.098,27.336 C96.23,26.896 96.318,26.192 96.318,25.642 C96.318,23.156 94.822,21.528 92.138,21.528 C89.102,21.528 86.902,23.728 86.902,27.028 C86.902,30.262 89.058,32.33 92.314,32.33 C93.678,32.33 95.02,32.022 95.988,31.494 L95.658,29.338 C94.734,29.91 93.568,30.262 92.49,30.262 C90.686,30.262 89.564,29.14 89.454,27.49 L89.454,27.424 Z M89.52,25.906 C89.652,24.652 90.51,23.486 91.94,23.486 C93.282,23.486 93.876,24.344 93.876,25.708 L93.876,25.884 L89.52,25.906 Z M101.07,25.73 C101.752,24.498 102.588,23.926 103.49,23.926 C103.974,23.926 104.458,24.058 104.942,24.322 L105.514,21.99 C104.964,21.66 104.326,21.528 103.71,21.528 C102.522,21.528 101.708,22.122 101.07,23.2 L101.07,21.55 L98.474,21.924 L98.474,32 L101.07,32 L101.07,25.73 Z M116.756,26.918 C116.756,23.574 114.622,21.506 111.63,21.506 C108.638,21.506 106.372,23.596 106.372,26.94 C106.372,30.306 108.528,32.33 111.498,32.33 C114.468,32.33 116.756,30.24 116.756,26.918 Z M114.182,26.94 C114.182,28.898 113.258,30.218 111.586,30.218 C109.892,30.218 108.924,28.854 108.924,26.918 C108.924,24.96 109.848,23.596 111.542,23.596 C113.214,23.596 114.182,24.982 114.182,26.94 Z M128.724,26.918 C128.724,23.574 126.59,21.506 123.598,21.506 C120.606,21.506 118.34,23.596 118.34,26.94 C118.34,30.306 120.496,32.33 123.466,32.33 C126.436,32.33 128.724,30.24 128.724,26.918 Z M126.15,26.94 C126.15,28.898 125.226,30.218 123.554,30.218 C121.86,30.218 120.892,28.854 120.892,26.918 C120.892,24.96 121.816,23.596 123.51,23.596 C125.182,23.596 126.15,24.982 126.15,26.94 Z M146.236,32 L146.236,25.048 C146.236,22.848 145.026,21.528 143.112,21.528 C141.726,21.528 140.516,22.166 139.504,23.266 C138.998,22.122 137.964,21.528 136.732,21.528 C135.478,21.528 134.444,22.034 133.498,22.98 L133.498,21.55 L130.902,21.902 L130.902,32 L133.498,32 L133.498,24.652 C133.982,24.19 134.686,23.816 135.61,23.816 C136.688,23.816 137.26,24.344 137.26,25.84 L137.26,32 L139.856,32 L139.856,24.718 C140.362,24.278 141.066,23.816 141.968,23.816 C143.046,23.816 143.64,24.344 143.64,25.84 L143.64,32 L146.236,32 Z" id="gameroom" fill="#FFFFFF"></path>
        </g>
    </g>
</svg>